<?xml version="1.0" standalone="no"?>
<!DOCTYPE svg PUBLIC "-//W3C//DTD SVG 20010904//EN"
 "http://www.w3.org/TR/2001/REC-SVG-20010904/DTD/svg10.dtd">
<svg version="1.0" xmlns="http://www.w3.org/2000/svg"
 width="1024.000000pt" height="1024.000000pt" viewBox="0 0 1024.000000 1024.000000"
 preserveAspectRatio="xMidYMid meet">
<metadata>
Created by potrace 1.14, written by Peter Selinger 2001-2017
</metadata>
<g transform="translate(0.000000,1024.000000) scale(0.100000,-0.100000)"
fill="#000000" stroke="none">
<path d="M4070 9340 l0 -150 -455 0 -455 0 0 -155 0 -155 -300 0 -300 0 0
-150 0 -150 -150 0 -150 0 0 -150 0 -150 -150 0 -150 0 0 -150 0 -150 -150 0
-150 0 0 -150 0 -150 -150 0 -150 0 0 -300 0 -300 -155 0 -155 0 0 -455 0
-455 -150 0 -150 0 0 -1050 0 -1050 150 0 150 0 0 -455 0 -455 155 0 155 0 0
-300 0 -300 150 0 150 0 0 -150 0 -150 150 0 150 0 0 -150 0 -150 150 0 150 0
0 -150 0 -150 150 0 150 0 0 -150 0 -150 300 0 300 0 0 -155 0 -155 455 0 455
0 0 -150 0 -150 1050 0 1050 0 0 150 0 150 455 0 455 0 0 155 0 155 300 0 300
0 0 150 0 150 300 0 300 0 0 -150 0 -150 150 0 150 0 0 -155 0 -155 150 0 150
0 0 -150 0 -150 155 0 155 0 0 -150 0 -150 150 0 150 0 0 -225 0 -225 375 0
375 0 0 375 0 375 -225 0 -225 0 0 150 0 150 -150 0 -150 0 0 155 0 155 -150
0 -150 0 0 150 0 150 -155 0 -155 0 0 150 0 150 -150 0 -150 0 0 300 0 300
150 0 150 0 0 300 0 300 155 0 155 0 0 455 0 455 150 0 150 0 0 1050 0 1050
-150 0 -150 0 0 455 0 455 -155 0 -155 0 0 300 0 300 -150 0 -150 0 0 150 0
150 -150 0 -150 0 0 150 0 150 -150 0 -150 0 0 150 0 150 -150 0 -150 0 0 150
0 150 -300 0 -300 0 0 155 0 155 -455 0 -455 0 0 150 0 150 -1050 0 -1050 0 0
-150z m2100 -610 l0 -150 455 0 455 0 0 -150 0 -150 300 0 300 0 0 -150 0
-150 150 0 150 0 0 -150 0 -150 150 0 150 0 0 -300 0 -300 150 0 150 0 0 -455
0 -455 150 0 150 0 0 -1050 0 -1050 -150 0 -150 0 0 -455 0 -455 -150 0 -150
0 0 -300 0 -300 -150 0 -150 0 0 -150 0 -150 -150 0 -150 0 0 -150 0 -150
-300 0 -300 0 0 -150 0 -150 -455 0 -455 0 0 -150 0 -150 -1050 0 -1050 0 0
150 0 150 -455 0 -455 0 0 150 0 150 -300 0 -300 0 0 150 0 150 -150 0 -150 0
0 150 0 150 -150 0 -150 0 0 300 0 300 -150 0 -150 0 0 455 0 455 -150 0 -150
0 0 1050 0 1050 150 0 150 0 0 455 0 455 150 0 150 0 0 300 0 300 150 0 150 0
0 150 0 150 150 0 150 0 0 150 0 150 300 0 300 0 0 150 0 150 455 0 455 0 0
150 0 150 1050 0 1050 0 0 -150z"/>
<path d="M4820 7305 l0 -75 -75 0 -75 0 0 -75 0 -75 -75 0 -75 0 0 -300 0
-300 75 0 75 0 0 -80 0 -80 75 0 75 0 0 -75 0 -75 300 0 300 0 0 75 0 75 75 0
75 0 0 80 0 80 75 0 75 0 0 300 0 300 -75 0 -75 0 0 75 0 75 -75 0 -75 0 0 75
0 75 -300 0 -300 0 0 -75z"/>
<path d="M6630 6705 l0 -75 -75 0 -75 0 0 -75 0 -75 -80 0 -80 0 0 -305 0
-305 80 0 80 0 0 -75 0 -75 75 0 75 0 0 -75 0 -75 300 0 300 0 0 75 0 75 75 0
75 0 0 75 0 75 75 0 75 0 0 305 0 305 -75 0 -75 0 0 75 0 75 -75 0 -75 0 0 75
0 75 -300 0 -300 0 0 -75z"/>
<path d="M3010 6555 l0 -75 -75 0 -75 0 0 -80 0 -80 -75 0 -75 0 0 -225 0
-225 75 0 75 0 0 -75 0 -75 75 0 75 0 0 -75 0 -75 300 0 300 0 0 75 0 75 75 0
75 0 0 75 0 75 80 0 80 0 0 225 0 225 -80 0 -80 0 0 80 0 80 -75 0 -75 0 0 75
0 75 -300 0 -300 0 0 -75z"/>
<path d="M4370 5795 l0 -75 -150 0 -150 0 0 -75 0 -75 -75 0 -75 0 0 -75 0
-75 -80 0 -80 0 0 -75 0 -75 -75 0 -75 0 0 -75 0 -75 -75 0 -75 0 0 -75 0 -75
-75 0 -75 0 0 -150 0 -150 -75 0 -75 0 0 -150 0 -150 -75 0 -75 0 0 -380 0
-380 75 0 75 0 0 -150 0 -150 75 0 75 0 0 -75 0 -75 75 0 75 0 0 -75 0 -75
150 0 150 0 0 -75 0 -75 455 0 455 0 0 75 0 75 75 0 75 0 0 75 0 75 150 0 150
0 0 75 0 75 300 0 300 0 0 -75 0 -75 150 0 150 0 0 -75 0 -75 380 0 380 0 0
75 0 75 150 0 150 0 0 150 0 150 75 0 75 0 0 380 0 380 -75 0 -75 0 0 225 0
225 -75 0 -75 0 0 75 0 75 -75 0 -75 0 0 75 0 75 -75 0 -75 0 0 150 0 150 -75
0 -75 0 0 75 0 75 -80 0 -80 0 0 75 0 75 -75 0 -75 0 0 75 0 75 -150 0 -150 0
0 75 0 75 -750 0 -750 0 0 -75z"/>
<path d="M2260 5345 l0 -75 -75 0 -75 0 0 -75 0 -75 -75 0 -75 0 0 -300 0
-300 75 0 75 0 0 -75 0 -75 75 0 75 0 0 -75 0 -75 225 0 225 0 0 75 0 75 75 0
75 0 0 75 0 75 75 0 75 0 0 300 0 300 -75 0 -75 0 0 75 0 75 -75 0 -75 0 0 75
0 75 -225 0 -225 0 0 -75z"/>
<path d="M7680 5195 l0 -75 -75 0 -75 0 0 -75 0 -75 -75 0 -75 0 0 -300 0
-300 75 0 75 0 0 -75 0 -75 75 0 75 0 0 -75 0 -75 225 0 225 0 0 75 0 75 75 0
75 0 0 75 0 75 75 0 75 0 0 300 0 300 -75 0 -75 0 0 75 0 75 -75 0 -75 0 0 75
0 75 -225 0 -225 0 0 -75z"/>
</g>
</svg>
