<svg height="1024pt" preserveAspectRatio="xMidYMid meet" viewBox="0 0 1024 1024" width="1024pt" xmlns="http://www.w3.org/2000/svg"><g transform="matrix(.1 0 0 -.1 0 1024)"><path d="m4070 9340v-150h-455-455v-155-155h-300-300v-150-150h-150-150v-150-150h-150-150v-150-150h-150-150v-150-150h-150-150v-300-300h-155-155v-455-455h-150-150v-1050-1050h150 150v-455-455h155 155v-300-300h150 150v-150-150h150 150v-150-150h150 150v-150-150h150 150v-150-150h300 300v-155-155h455 455v-150-150h1050 1050v150 150h455 455v155 155h300 300v150 150h300 300v-150-150h150 150v-155-155h150 150v-150-150h155 155v-150-150h150 150v-225-225h375 375v375 375h-225-225v150 150h-150-150v155 155h-150-150v150 150h-155-155v150 150h-150-150v300 300h150 150v300 300h155 155v455 455h150 150v1050 1050h-150-150v455 455h-155-155v300 300h-150-150v150 150h-150-150v150 150h-150-150v150 150h-150-150v150 150h-300-300v155 155h-455-455v150 150h-1050-1050zm2100-610v-150h455 455v-150-150h300 300v-150-150h150 150v-150-150h150 150v-300-300h150 150v-455-455h150 150v-1050-1050h-150-150v-455-455h-150-150v-300-300h-150-150v-150-150h-150-150v-150-150h-300-300v-150-150h-455-455v-150-150h-1050-1050v150 150h-455-455v150 150h-300-300v150 150h-150-150v150 150h-150-150v300 300h-150-150v455 455h-150-150v1050 1050h150 150v455 455h150 150v300 300h150 150v150 150h150 150v150 150h300 300v150 150h455 455v150 150h1050 1050z"/><path d="m4820 7305v-75h-75-75v-75-75h-75-75v-300-300h75 75v-80-80h75 75v-75-75h300 300v75 75h75 75v80 80h75 75v300 300h-75-75v75 75h-75-75v75 75h-300-300z"/><path d="m6630 6705v-75h-75-75v-75-75h-80-80v-305-305h80 80v-75-75h75 75v-75-75h300 300v75 75h75 75v75 75h75 75v305 305h-75-75v75 75h-75-75v75 75h-300-300z"/><path d="m3010 6555v-75h-75-75v-80-80h-75-75v-225-225h75 75v-75-75h75 75v-75-75h300 300v75 75h75 75v75 75h80 80v225 225h-80-80v80 80h-75-75v75 75h-300-300z"/><path d="m4370 5795v-75h-150-150v-75-75h-75-75v-75-75h-80-80v-75-75h-75-75v-75-75h-75-75v-75-75h-75-75v-150-150h-75-75v-150-150h-75-75v-380-380h75 75v-150-150h75 75v-75-75h75 75v-75-75h150 150v-75-75h455 455v75 75h75 75v75 75h150 150v75 75h300 300v-75-75h150 150v-75-75h380 380v75 75h150 150v150 150h75 75v380 380h-75-75v225 225h-75-75v75 75h-75-75v75 75h-75-75v150 150h-75-75v75 75h-80-80v75 75h-75-75v75 75h-150-150v75 75h-750-750z"/><path d="m2260 5345v-75h-75-75v-75-75h-75-75v-300-300h75 75v-75-75h75 75v-75-75h225 225v75 75h75 75v75 75h75 75v300 300h-75-75v75 75h-75-75v75 75h-225-225z"/><path d="m7680 5195v-75h-75-75v-75-75h-75-75v-300-300h75 75v-75-75h75 75v-75-75h225 225v75 75h75 75v75 75h75 75v300 300h-75-75v75 75h-75-75v75 75h-225-225z"/></g></svg>