<svg viewBox="0 0 165.17 98.84" xmlns="http://www.w3.org/2000/svg"><g transform="matrix(.13333 0 0 -.13333 0 98.84)"><path d="m595.83 505.74c21.801 0 42.973-1.992 63.184-5.679l48.078 50.093c-33.621 11.645-71.367 18.172-111.26 18.172-67.836 0-129.42-18.91-175.09-49.707l41.899-39.687c38.742 16.972 84.328 26.808 133.19 26.808" fill="#959596"/><path d="m595.83 568.33c39.895 0 77.641-6.527 111.26-18.172l52.273 54.422c-48.777 19.231-104.41 30.152-163.54 30.152-88.129 0-168.54-24.253-229.91-64.156l54.824-51.953c45.668 30.797 107.25 49.707 175.09 49.707" fill="#fff"/><g fill="#959596"><path d="m344.82 355.39c4.395 17.968 12.512 35 23.707 50.75l-21.058 21.304c-4.172-13.09-6.481-26.722-6.481-40.757 0-10.668 1.332-21.114 3.832-31.297"/><path d="m189.22 237.64-8.84-45.832 87.969 37.871c-5.551 11.679-6.641 26.906-9.848 39.289z"/><path d="m127.31 736.09-127.31-697.18 60.215-4.9024 126.06 707.31-58.964-5.23"/></g><path d="m555.44 334.89v56.382l-92.473 87.661-41.879 39.687-54.848 51.953-180.17 170.75-126.11-707.32 266.84 117.31c-26.567 23.464-45.395 48.484-59.387 77.968l-86.859-37.257 8.711 45.597 56.285 293.36 4.703 24.621 106.27-107 25.664-25.891 105.55-90.922-102.45-46.953c26.614-26.57 58.129-49.988 100.62-63.215l127.83 57.395-58.292 55.887" fill="#ed1c24"/><g fill="#959596"><path d="m846.82 355.39c2.481 10.183 3.848 20.629 3.848 31.297 0 31.484-11.516 61.21-31.328 87.019l-30.352-31.422c29.153-24.254 49.856-54.14 57.832-86.894"/><path d="m903.87 57.004-71.926 69.098c-11.503-7.848-23.796-15.137-36.668-21.825l108.59-104.28 334.88 348.8-.37 56.48-334.51-348.27"/><path d="m659.84 291.26-59.239 56.887-45.328 43.277-.16-56.531 124.65-119.72c15.476 3.863 30.285 8.719 44.207 14.508l-64.129 61.582"/><path d="m892.7 606.69-47.675-49.633-52.579-54.793-35.859-37.313-67.93-70.738 28.457-27.316 72.278 75.242 30.222 31.476 55.371 57.645 17.715 18.465 184.14-176.52 28.48 29.574-212.62 203.92"/></g><path d="m874.98 531.26-55.371-57.645c19.817-25.812 31.055-55.441 31.055-86.925 0-10.668-1.367-21.114-3.848-31.297-6.464-26.496-20.988-51.036-41.711-72.278-21.199-21.734-48.906-40.039-81.132-53.437-13.922-5.789-28.731-10.645-44.207-14.508-26.27-6.516-54.524-10.109-83.938-10.109-36.238 0-70.66 5.39-101.86 15.109-42.504 13.25-78.949 34.488-105.58 61.082-9.715 9.688-18.106 20.117-25.039 31.121-8.528 13.535-14.832 27.942-18.524 43.02-2.5 10.183-3.832 20.629-3.832 31.297 0 14.035 2.309 27.667 6.481 40.757l-63.586 64.371c-23.289-34.535-36.43-73.449-36.43-114.66 0-10.597.981-21.043 2.664-31.297 4.074-24.921 13.008-48.691 26-70.879 6.516-11.152 14.082-21.894 22.606-32.16 22.371-26.98 51.214-50.691 85.027-69.91 58.707-33.39 132.22-53.312 212.07-53.312 55.871 0 108.61 9.738 155.38 27.011 14.199 5.227 27.812 11.164 40.84 17.735 30.156 15.273 56.914 33.918 79.238 55.246 37.473 35.789 62.5 79.051 70.242 126.27 1.692 10.254 2.649 20.7 2.649 31.297 0 57.793-25.735 111.15-69.2 154.1" fill="#fff"/><path d="m659.54 290.84 63.914-61.387c32.188 13.426 60.129 31.492 81.367 53.242l-87.636 84.149-28.458 27.301 67.571 70.371 35.816 37.324 52.602 54.797 47.683 49.629 212.12-203.65-28.47-29.679-173.78-180.93c-18.301-25.09-42.043-47.356-70.118-66.574l71.415-68.879 334.89 348.76-348.77 334.88-130.62-136.04-52.278-54.433-48.105-50.094-103.4-108.21 104.27-100.58" fill="#1c63b7"/><path d="m364.8 310.63s1.668-2.754 1.859-3.055c5.117-8.137 12.145-15.574 18.797-23.008l104.18 48.145-239.42 222.96-6.527-34.484 187.84-185.97-66.726-24.582" fill="#959596"/><path d="m944.18 377.16c0-10.597-.957-21.043-2.649-31.297-7.742-47.218-32.769-90.48-70.242-126.27-22.324-21.328-49.082-39.973-79.238-55.246-13.028-6.571-26.641-12.508-40.84-17.735-46.777-17.273-99.512-27.011-155.38-27.011-79.851 0-153.37 19.922-212.07 53.312-33.813 19.219-62.656 42.93-85.027 69.91-8.524 10.266-16.09 21.008-22.606 32.16-12.992 22.188-21.926 45.958-26 70.879-1.683 10.254-2.664 20.7-2.664 31.297 0 3.34.258 6.629.418 9.914-.031.176-.098.434-.113.598-1.699-10.27-.305-62.531-.305-73.117 0-16.809 2.246-33.203 6.398-49.113 3.243-12.422 7.688-24.481 13.235-36.161 13.988-29.484 34.969-56.504 61.547-79.992 63.941-56.387 159.89-92.281 267.19-92.281 74.453 0 143.39 17.32 200.01 46.726 12.859 6.688 25.098 13.985 36.582 21.836 28.074 19.207 51.844 41.77 70.144 66.856 26.536 36.308 41.614 77.918 41.614 122.13 0 9.316.8 53.515-.098 71.058-.156 2.407.098-5.406.098-8.453" fill="#959596"/></g></svg>